<?xml version="1.0" encoding="UTF-8"?>
<svg version="1.1" viewBox="0 0 2048 2048" width="1280" height="1280" xmlns="http://www.w3.org/2000/svg">
<path transform="translate(435,119)" d="m0 0 9 1 9 6 13 14 9 11 12 14 15 20 13 19 9 15 12 23 8 19 6 19 4 19 1 7v25l-4 20-6 16-8 14-11 13-11 10-11 7-16 8-15 5-12 3h-3v48h138l13 3 12 5 13 10 8 9 6 10 4 10 2 10v179l-3 14-8 16-5 8v351l16 8 22 13 18 13 10 8 3 2 7-11 9-12 14-19 8-10 11-14 2-3h2l2-4 9-11 5-5 5-4 4-2h11l10 6 7 8 9 11 14 17 21 28 10 14 7 10 4-2 18-14 19-12 18-10 22-10 22-8 26-7 15-3h17l8 5 6 10 7 19 7 28 4 24 2 26v24l4-1h38l8 1v-374l2-21 5-19 8-18 9-14 9-11 11-11 16-12 27-18 15-11 3-3h2v-2l5-5 4-5 5-10 2-7v-88l-8-6v-2h-2l-6-9-3-7-1-18v-60l2-13 5-10 5-6 11-7 5-2 6-1h47v-115l2-14 7-19 9-14 9-10 13-10 16-8 16-4h27l15 4 16 8 9 6 11 10 8 11 8 16 4 15 1 8v116h44l12 2 11 6 8 9 5 11 1 7v69l-1 13-4 9-6 8-9 7v85l3 12 5 9 6 8 11 9 11 8 24 16 11 8 11 9 13 13 9 13 9 17 6 18 3 17 1 19v250h103l16 2 15 6 11 8 5 4 10 13 5 11 4 15v16l-4 16-8 15-6 7 2 4 6 8 6 12 4 15v16l-4 16-7 14-7 8 2 4 9 14 5 13 2 10v14l-4 16-7 14-6 8 1 5 8 11 5 12 3 12v15l-4 17-1 2 44 1 8 4 6 7 2 13v52l-1 78-2 16-6 21-7 16-7 12-8 11-7 9h-2l-2 4-4 2v2l-17 13-19 11-19 7-23 5-11 1-57 1v74l2 11 7 27 1 7v22l-3 11-5 9-7 7-8 4-9 2h-127l-10-3-10-8-6-10-3-11v-23l4-20 1-9-13-32-11-26-12-29-2-3h-911l-25 60-12 29v7l4 16 1 8v21l-3 11-4 8-5 6-10 6-8 2h-128l-10-3-6-4-7-7-5-10-2-8v-25l5-23 4-14 1-7v-73l-60-1-21-3-17-5-18-8-15-9-13-11-15-15-9-12-8-14-7-15-5-16-3-17-1-13v-128l3-8 6-7 6-3 56-1v-752l-9-15-5-12-2-9v-148l4-15 5-10 9-12 9-8 14-8 16-4h139v-48l-8-1-17-5-18-8-12-8-10-9-11-11-9-14-6-12-5-17-2-16v-10l2-18 5-21 9-25 10-21 12-21 12-18 10-14 9-12 10-12 9-11 3-4h2l2-4 7-8 8-6zm2 51-9 10-11 14-13 17-10 15-12 20-11 23-7 20-4 24v11l3 16 5 12 6 9 7 8 10 7 14 7 15 4h34l16-4 16-8 10-8 8-9 7-14 3-12 1-7v-12l-2-16-6-21-10-23-9-17-18-27-13-17-11-13-8-9zm945 119-13 4-9 6-5 5-7 10-4 13-1 111 1 5h89v-117l-3-10-5-9-6-7-11-7-8-3-6-1zm-119 195v64l251-1v-63zm-976 31-11 2-9 7-5 10-1 57v78l2 12 4 6 8 7 9 3h7l9-3 9-8 3-6 1-5 1-28 4-14 5-9 9-10 10-7 11-4 5-1h16l11 3 11 6 9 8 6 9 5 11 4 8 5 5 5 3 10 1 9-3 5-4 4-7 5-12 7-11 9-8 14-7 8-2h17l13 4 11 7 4 2 2 4 6 8 4 8 3 12 1 60 3 9 5 7 6 4 5 2h13l8-4 8-7 3-7 1-8v-162l-2-10-4-7-6-5-6-3-6-1zm997 73v63h209v-63zm-920 53-8 4-2 5-1 25-3 16-4 10-7 11-6 6v2l-4 2-11 7-12 5-10 2-18 1v732h234l-5-4-14-8-16-11-14-11-12-11-6-5-2-3h-2l-2-4-11-12-12-16-10-15-12-22-9-19-9-25-8-30-2-11v-16l4-7 10-6 19-7 23-6 27-5 21-2h41l1-1 1-29 3-27 5-26 8-28 7-16 4-5 10-4 18 2 25 6 4 1v-317h-17l-16-4-13-7-11-9-8-11-6-12-3-11-1-10v-50l-3-9-4-4-8-1-6 3-4 6-5 12-6 10-7 8-10 7-11 5-12 3h-18l-12-3-12-6-12-11-7-9-8-18-4-5-5-2zm916 50-2 1-5 12-7 11-11 13-13 11-14 10-12 8-19 13-10 8-8 8-9 14-6 13-3 12-1 8v81h457v-83l-3-15-6-15-9-14-6-7-11-9-37-25-12-9-10-9-8-8-7-10-8-15-2-4zm-119 263-1 1v265l28 8 15 6 8 5 4 8v16l-6 27-8 25-8 20-8 17-9 15-5 9-11 15-11 14-15 16-13 12-14 11-21 14-17 10 4 1h201l-4-7-9-14-6-15-4-13-2-13v-23l4-20 6-16 9-16 8-10 6-7v-2l-11-7-9-10-6-10-5-12-2-9v-18l4-16 7-13 7-8-6-9-8-14-4-15v-19l4-15 8-15 11-12 13-8 13-5 15-2 304-1v-141zm-372 147-10 13-9 11-8 11-24 34-8 13-11 17-12 21-11 20-12 26-9 23-7 22-5 23-2 22 1 19 4 18 8 16 9 13 9 9 14 10 19 10 19 7 20 6 9 2 9 1h18l20-4 17-5 19-7 19-10 12-9 10-9 7-9 9-16 4-13 2-11 1-16-2-23-5-24-11-33-10-23-12-25-10-18-10-17-10-15-10-16-12-17-13-18-12-15-10-13zm-224 18-6 22-4 19-3 26v28l5 36 6 22 7 19 10 21 12 19 12 16 11 12 5 6h1l1-20 4-27 7-28 9-25 12-28 16-32 14-24-2-5-16-12-14-10-23-13-28-12-19-6zm449 0-25 7-22 8-25 12-19 12-21 16-3 2v2h-2l2 6 14 25 12 23 11 25 9 24 7 24 5 24 2 17 1 19 4-2 9-11 12-15 12-18 14-27 10-30 4-19 3-21v-42l-3-24-6-27-4-10zm294 17-10 5-6 7-3 7-1 9 3 10 4 6 9 7 6 1 73 1h368l19-2 9-6 5-7 2-6v-11l-4-10-4-5-12-6zm56 93-57 1-8 4-7 8-3 7-1 7 3 12 5 7 10 6 4 1h444l13-1 9-4 7-8 3-8v-11l-4-10-9-8-6-2-11-1zm-281 23-18 1-3 9-7 24-7 19-12 25-12 20-11 15-11 14-15 16-10 10-8 7-16 13-13 10-8 9-7 8-5 6-5 5 34-2 33-5 28-7 22-8 15-7 19-10 16-11 14-11 10-9v-2l4-2v-2h2l7-8 11-14 12-18 9-16 11-25 7-21 5-19-7-3-24-6-28-4-14-1zm-601 0-26 2-24 4-23 6-1 1 1 9 8 26 8 20 11 22 12 19 10 13 10 11 7 8 11 10 14 11 15 10 27 14 20 8 23 7 31 6 29 3 21 1-6-7-13-14-7-8-14-11-13-11-8-7-10-9-14-15-9-11-9-12-10-15-10-17-10-21-9-25-6-24-3-3-20-1zm1224 70-349 1-17 2-14 6-11 8-6 5-9 12-8 16-3 13-1 7 1 16 4 14 7 14 8 10 10 9 14 8 12 4 7 1 18 1h385l16-2 9-6 5-7 2-6v-12l-5-10-8-7-9-3-380-1-7-2-8-9-1-3v-11l4-7 6-5 9-2 379-1 9-4 5-4 4-6 2-6v-12l-4-9-5-6-5-3-15-2zm-1497 187-2 1v111l2 13 6 18 8 15 11 14 12 11 18 11 16 6 13 3 9 1h1441l17-2 16-5 16-8 12-8 8-7 7-8 9-13 7-16 4-13 2-18v-105l-1-1zm192 244-2 5-1 77-3 15-4 14-3 14v10h107l1-5-3-17-4-15v-12l29-70 6-15v-1zm1123 0 3 9 16 38 16 39v11l-4 15-3 15v8h107l1-1-1-12-5-21-4-17-1-14-1-70z"/>
</svg>
